<?xml version="1.0" standalone="no"?>
<!DOCTYPE svg PUBLIC "-//W3C//DTD SVG 20010904//EN"
 "http://www.w3.org/TR/2001/REC-SVG-20010904/DTD/svg10.dtd">
<svg version="1.0" xmlns="http://www.w3.org/2000/svg"
 width="220.000000pt" height="204.000000pt" viewBox="0 0 220.000000 204.000000"
 preserveAspectRatio="xMidYMid meet">
<metadata>
Created by potrace 1.10, written by Peter Selinger 2001-2011
</metadata>
<g transform="translate(0.000000,204.000000) scale(0.100000,-0.100000)"
fill="#000000" stroke="none">
<path d="M396 1745 c-127 -33 -251 -138 -308 -262 -25 -55 -32 -85 -36 -160
-7 -136 20 -221 95 -297 72 -73 148 -91 307 -71 61 7 70 6 82 -10 8 -10 14
-32 14 -48 0 -24 4 -28 23 -25 18 2 24 12 31 53 5 33 4 65 -3 92 -26 96 -87
122 -226 97 -155 -27 -204 -13 -245 70 -34 70 -38 154 -10 210 69 143 269 200
425 120 116 -58 235 -225 282 -394 27 -101 25 -322 -4 -415 -40 -125 -119
-223 -168 -209 -11 3 -51 39 -90 79 -99 103 -154 116 -266 59 -65 -33 -169
-122 -169 -145 0 -31 24 -32 65 -5 21 14 46 26 57 26 10 0 38 -21 61 -46 117
-130 158 -153 236 -139 116 21 283 203 400 436 66 133 91 232 91 361 0 128
-21 216 -76 324 -24 48 -44 90 -44 93 0 13 78 51 104 51 41 0 87 -24 130 -66
124 -125 180 -285 192 -546 12 -249 -36 -438 -109 -438 -21 0 -41 12 -146 82
-32 22 -92 23 -130 3 -33 -16 -148 -138 -174 -184 -16 -27 -16 -32 -3 -37 9
-3 36 4 60 16 52 25 63 21 134 -41 106 -93 183 -70 302 90 94 128 169 262 201
360 35 109 69 298 69 381 0 69 -21 177 -48 245 -19 47 -19 50 -1 80 50 84 124
115 186 76 43 -27 68 -80 93 -193 23 -104 61 -193 92 -209 18 -10 14 -17 -64
-97 -96 -99 -142 -163 -175 -242 -42 -104 -26 -222 49 -349 33 -55 170 -201
188 -201 18 0 290 223 290 237 0 23 -29 26 -70 8 -94 -42 -175 18 -225 167
-41 120 -41 240 -2 320 43 88 126 161 231 204 57 23 70 54 27 64 -37 8 -59 46
-89 151 -16 53 -40 116 -55 142 -63 107 -195 159 -327 127 -42 -10 -64 -24
-104 -64 -28 -28 -61 -64 -73 -81 l-22 -30 -23 30 c-82 111 -166 159 -274 158
-106 -2 -189 -45 -245 -128 -13 -19 -29 -35 -35 -35 -5 0 -26 16 -44 35 -100
104 -291 156 -434 120z m241 -53 c64 -20 115 -50 181 -106 24 -20 48 -36 53
-36 5 0 9 -6 9 -13 0 -8 18 -48 40 -90 77 -145 101 -334 64 -486 -18 -75 -92
-241 -107 -241 -5 0 -6 8 -3 17 14 36 18 230 7 302 -36 231 -168 438 -328 514
-62 29 -77 32 -163 32 -97 0 -139 -10 -193 -48 -76 -52 -17 39 62 98 28 20 74
45 103 55 71 26 196 26 275 2z m626 -2 c51 -24 187 -160 187 -187 0 -10 9 -45
20 -76 51 -144 49 -304 -6 -515 -24 -94 -67 -202 -79 -202 -3 0 -3 53 1 118 7
135 -7 304 -36 416 -53 207 -190 371 -320 384 -28 2 -50 8 -50 13 0 11 57 50
88 59 53 16 150 11 195 -10z m585 -12 c65 -32 106 -91 138 -196 27 -93 44
-134 70 -169 15 -21 14 -23 -33 -48 -26 -14 -61 -34 -76 -43 -27 -17 -28 -16
-48 8 -37 47 -58 98 -78 187 -11 48 -27 105 -35 126 -23 54 -88 115 -131 123
-28 5 -33 9 -25 20 27 31 148 27 218 -8z m-1583 -612 c39 1 109 5 157 9 84 8
87 7 112 -18 15 -15 26 -37 26 -52 0 -23 -2 -25 -22 -14 -15 8 -47 9 -102 4
-117 -11 -156 -7 -205 18 -45 23 -98 82 -56 62 11 -6 52 -9 90 -9z m1535 -82
c-23 -111 21 -304 90 -392 27 -35 98 -82 122 -82 33 0 19 -19 -58 -80 -88 -70
-85 -70 -169 22 -81 90 -129 192 -133 285 -4 67 -1 79 31 146 32 67 113 174
124 163 3 -2 -1 -30 -7 -62z m-1320 -381 c13 -9 38 -33 55 -52 48 -57 87 -90
108 -93 33 -5 29 -21 -11 -49 -100 -70 -166 -58 -259 47 -31 36 -69 72 -85 80
-15 8 -28 18 -28 23 0 5 23 21 52 35 61 31 131 34 168 9z m654 -57 c37 -25 76
-46 87 -46 24 0 24 -7 -2 -44 -62 -90 -141 -110 -206 -53 -56 49 -85 67 -110
67 -12 0 -24 4 -27 9 -8 13 59 86 96 105 47 24 85 15 162 -38z"/>
</g>
</svg>
