<?xml version="1.0" standalone="no"?>
<!DOCTYPE svg PUBLIC "-//W3C//DTD SVG 20010904//EN"
 "http://www.w3.org/TR/2001/REC-SVG-20010904/DTD/svg10.dtd">
<svg version="1.0" xmlns="http://www.w3.org/2000/svg"
 width="450.000000pt" height="450.000000pt" viewBox="0 0 450.000000 450.000000"
 preserveAspectRatio="xMidYMid meet">

<g transform="translate(0.000000,450.000000) scale(0.100000,-0.100000)"
fill="#000000" stroke="none">
<path d="M290 2236 l0 -456 253 0 c273 0 294 4 358 62 67 60 97 190 65 286
-18 52 -66 105 -111 122 -23 9 -23 10 20 52 84 85 88 215 7 308 -62 73 -67 74
-344 78 l-248 4 0 -456z m449 276 c35 -26 46 -66 32 -113 -18 -59 -46 -69
-196 -69 l-125 0 0 98 c0 54 3 102 8 107 4 4 63 5 131 2 100 -5 130 -10 150
-25z m23 -367 c64 -47 57 -163 -12 -197 -28 -14 -61 -18 -167 -18 l-133 0 0
118 c0 65 2 121 4 123 2 2 67 2 143 -1 117 -4 142 -8 165 -25z"/>
<path d="M1040 2235 l0 -455 315 0 315 0 0 75 0 75 -235 0 -236 0 2 120 1 120
206 2 207 3 3 78 3 77 -211 0 -210 0 0 100 c0 55 3 100 8 100 4 0 104 1 222 3
l215 2 3 78 3 77 -306 0 -305 0 0 -455z"/>
<path d="M2705 2678 c-17 -49 -125 -356 -160 -458 -39 -112 -94 -264 -139
-389 -9 -24 -16 -45 -16 -47 0 -2 40 -4 89 -4 l90 0 32 100 33 100 166 0 165
0 35 -100 34 -100 88 0 c48 0 88 4 88 9 0 5 -24 78 -54 163 -48 137 -85 239
-229 626 l-42 112 -88 0 c-61 0 -89 -4 -92 -12z m150 -373 c25 -77 49 -146 52
-152 3 -10 -21 -13 -106 -13 -61 0 -111 2 -111 5 0 22 104 315 110 308 4 -4
29 -71 55 -148z"/>
<path d="M3260 2237 c0 -250 2 -456 4 -458 2 -2 41 -3 85 -1 l81 4 0 454 0
454 -85 0 -85 0 0 -453z"/>
<path d="M3500 2236 l0 -456 85 0 85 0 0 190 0 190 40 0 c93 0 114 -21 252
-247 l81 -133 98 0 c55 0 99 2 99 3 0 8 -141 249 -169 291 -17 24 -46 57 -66
73 l-34 29 50 17 c68 25 124 82 143 148 41 137 -5 268 -112 321 -45 22 -60 23
-299 26 l-253 4 0 -456z m460 278 c62 -37 62 -151 -1 -188 -24 -14 -59 -20
-160 -24 l-129 -5 0 115 c0 63 2 117 4 119 3 3 61 4 130 3 100 -2 131 -6 156
-20z"/>
<path d="M1750 2230 l0 -450 290 0 290 0 0 75 0 75 -205 0 -205 0 0 375 0 375
-85 0 -85 0 0 -450z"/>
</g>
</svg>
